<?xml version="1.0" encoding="utf-8"?>
<!-- Generator: Adobe Illustrator 15.0.0, SVG Export Plug-In . SVG Version: 6.00 Build 0)  -->
<!DOCTYPE svg PUBLIC "-//W3C//DTD SVG 1.1//EN" "http://www.w3.org/Graphics/SVG/1.1/DTD/svg11.dtd">
<svg version="1.1" id="Calque_1" xmlns="http://www.w3.org/2000/svg" xmlns:xlink="http://www.w3.org/1999/xlink" x="0px" y="0px"
	 width="195.333px" height="195px" viewBox="0 0 195.333 195" enable-background="new 0 0 195.333 195" xml:space="preserve">
<g display="none">
	<g display="inline">
		<g>
			<g>
				<path fill="#E7E7E7" d="M34.5,23.908c8.671-7.437,18.675-13.332,29.412-17.297C74.642,2.633,86.099,0.617,97.5,0.625v24.75
					c-8.542-0.003-17.034,1.497-25.007,4.451c-7.974,2.945-15.423,7.33-21.89,12.877L34.5,23.908z"/>
				<path opacity="0.875" fill="#E7E7E7" d="M1.771,82.569C3.515,71.266,7.307,60.268,12.89,50.29
					c5.581-9.981,12.93-18.953,21.61-26.381l16.104,18.795c-6.474,5.54-11.957,12.237-16.11,19.663
					c-4.153,7.428-6.965,15.583-8.264,23.991L1.771,82.569z"/>
				<path opacity="0.75" fill="#E7E7E7" d="M12.89,144.71c-5.583-9.979-9.375-20.976-11.119-32.28
					c-1.745-11.305-1.498-22.854,0.751-34.084l24.266,4.87c-1.673,8.326-1.86,17.022-0.559,25.426
					c1.298,8.408,4.11,16.563,8.264,23.991L12.89,144.71z"/>
				<path opacity="0.625" fill="#E7E7E7" d="M63.911,188.389c-10.736-3.965-20.741-9.86-29.412-17.297
					c-8.68-7.429-16.029-16.4-21.61-26.381l21.604-12.077c8.273,14.887,22.027,26.689,38,32.541L63.911,188.389z"/>
				<path opacity="0.5" fill="#E7E7E7" d="M131.089,188.389c-21.498,7.981-45.68,7.981-67.178,0l8.582-23.214
					c15.914,5.932,34.1,5.932,50.014,0L131.089,188.389z"/>
				<path opacity="0.375" fill="#E7E7E7" d="M182.11,144.71c-5.581,9.981-12.93,18.953-21.61,26.381
					c-8.671,7.437-18.675,13.332-29.412,17.297l-8.582-23.214c15.973-5.851,29.727-17.653,38-32.541L182.11,144.71z"/>
				<path opacity="0.25" fill="#E7E7E7" d="M193.229,82.569c1.745,11.305,1.498,22.854-0.751,34.084
					c-2.243,11.22-6.524,22.034-12.543,31.751l-21.047-13.021c4.482-7.238,7.657-15.262,9.325-23.6
					c1.673-8.326,1.86-17.022,0.559-25.426L193.229,82.569z"/>
				<path opacity="0.125" fill="#E7E7E7" d="M160.5,23.908c8.68,7.429,16.029,16.4,21.61,26.381
					c5.583,9.979,9.375,20.976,11.119,32.28l-24.458,3.788c-1.298-8.408-4.11-16.563-8.264-23.991
					c-4.153-7.426-9.636-14.124-16.11-19.663L160.5,23.908z"/>
				<path opacity="0" fill="#E7E7E7" d="M97.5,0.625c11.401-0.008,22.858,2.008,33.589,5.986
					c10.736,3.965,20.741,9.86,29.412,17.297l-16.104,18.795c-6.467-5.547-13.917-9.932-21.89-12.877
					c-7.973-2.954-16.465-4.454-25.007-4.451V0.625z"/>
			</g>
		</g>
	</g>
</g>
<g>
	<g>
		<g>
			<g>
				<path fill="#E7E7E7" d="M34.5,23.908c8.671-7.437,18.675-13.332,29.412-17.297C74.642,2.633,86.099,0.617,97.5,0.625v24.75
					c-8.542-0.003-17.034,1.497-25.007,4.451c-7.974,2.945-15.423,7.33-21.89,12.877L34.5,23.908z"/>
				<path opacity="0.9" fill="#E7E7E7" d="M4.583,70.019c3.235-10.98,8.461-21.358,15.308-30.505
					c6.846-9.149,15.306-17.078,24.896-23.301l13.483,20.755c-7.143,4.634-13.459,10.554-18.562,17.373
					c-5.103,6.82-8.986,14.536-11.388,22.689L4.583,70.019z"/>
				<path opacity="0.8" fill="#E7E7E7" d="M3.459,120.84c-2.754-11.121-3.493-22.669-2.25-34.021
					c1.241-11.362,4.531-22.523,9.672-32.74L33,65.186c-3.824,7.6-6.263,15.872-7.188,24.335
					c-0.929,8.471-0.374,17.133,1.673,25.373L3.459,120.84z"/>
				<path opacity="0.7" fill="#E7E7E7" d="M31.309,168.234c-8.342-7.804-15.297-17.087-20.426-27.313
					c-5.142-10.217-8.432-21.378-9.672-32.74l24.602-2.702c0.925,8.463,3.364,16.735,7.188,24.335
					c3.813,7.604,9,14.53,15.223,20.351L31.309,168.234z"/>
				<path opacity="0.6" fill="#E7E7E7" d="M76.249,192.032c-11.168-2.495-21.883-7.012-31.463-13.245
					c-9.589-6.223-18.05-14.152-24.896-23.301l19.817-14.827c5.103,6.819,11.419,12.739,18.562,17.373
					c7.137,4.644,15.092,7.995,23.388,9.848L76.249,192.032z"/>
				<path opacity="0.5" fill="#E7E7E7" d="M131.089,188.389c-21.498,7.981-45.68,7.981-67.178,0l8.582-23.214
					c15.914,5.932,34.1,5.932,50.014,0L131.089,188.389z"/>
				<path opacity="0.4" fill="#E7E7E7" d="M175.11,155.486c-6.846,9.149-15.306,17.078-24.896,23.301
					c-9.58,6.233-20.294,10.75-31.463,13.245l-5.409-24.152c8.296-1.854,16.251-5.205,23.388-9.848
					c7.143-4.634,13.459-10.554,18.562-17.373L175.11,155.486z"/>
				<path opacity="0.3" fill="#E7E7E7" d="M193.79,108.181c-1.241,11.362-4.531,22.523-9.672,32.74
					c-5.129,10.225-12.084,19.509-20.426,27.313l-16.914-18.068c6.223-5.821,11.409-12.747,15.223-20.351
					c3.824-7.6,6.263-15.872,7.188-24.335L193.79,108.181z"/>
				<path opacity="0.2" fill="#E7E7E7" d="M184.118,54.079c5.142,10.217,8.432,21.378,9.672,32.74
					c1.243,11.352,0.505,22.9-2.25,34.021l-24.025-5.946c2.046-8.24,2.602-16.902,1.673-25.373
					c-0.925-8.463-3.364-16.735-7.188-24.335L184.118,54.079z"/>
				<path opacity="0.1" fill="#E7E7E7" d="M150.214,16.213c9.589,6.223,18.05,14.152,24.896,23.301
					c6.846,9.147,12.072,19.525,15.308,30.505l-23.736,7.011c-2.402-8.153-6.286-15.869-11.388-22.689
					c-5.103-6.819-11.419-12.739-18.562-17.373L150.214,16.213z"/>
				<path opacity="0" fill="#E7E7E7" d="M97.5,0.625c11.401-0.008,22.858,2.008,33.589,5.986
					c10.736,3.965,20.741,9.86,29.412,17.297l-16.104,18.795c-6.467-5.547-13.917-9.932-21.89-12.877
					c-7.973-2.954-16.465-4.454-25.007-4.451V0.625z"/>
			</g>
		</g>
	</g>
</g>
</svg>
