<?xml version="1.0" standalone="no"?>
<!DOCTYPE svg PUBLIC "-//W3C//DTD SVG 20010904//EN"
 "http://www.w3.org/TR/2001/REC-SVG-20010904/DTD/svg10.dtd">
<svg version="1.0" xmlns="http://www.w3.org/2000/svg"
 width="500.000000pt" height="500.000000pt" viewBox="0 0 500.000000 500.000000"
 preserveAspectRatio="xMidYMid meet">
<metadata>
Created by potrace 1.11, written by Peter Selinger 2001-2013
</metadata>
<g transform="translate(0.000000,500.000000) scale(0.100000,-0.100000)"
fill="#000000" stroke="none">
<path d="M2427 4834 c-1 -1 -45 -4 -97 -8 -52 -3 -106 -8 -120 -10 -14 -3 -59
-10 -100 -16 -94 -14 -249 -53 -361 -90 -488 -165 -916 -497 -1203 -934 -42
-64 -76 -118 -76 -120 0 -3 -13 -27 -28 -53 -15 -26 -49 -96 -75 -154 -79
-178 -134 -354 -163 -528 -3 -18 -8 -43 -10 -55 -20 -100 -27 -505 -11 -636
53 -441 252 -893 541 -1230 52 -60 218 -223 281 -276 361 -301 831 -495 1295
-531 198 -16 457 -4 615 28 28 5 64 12 82 15 17 3 62 14 100 25 37 11 75 22
83 24 21 5 111 34 135 44 275 114 391 178 594 330 101 75 300 261 371 346 179
216 312 443 403 686 37 99 83 250 93 302 2 17 6 33 8 36 2 3 7 28 10 55 4 27
9 52 11 55 2 3 6 42 10 86 4 44 9 89 11 100 6 29 6 368 0 385 -3 8 -7 42 -10
75 -7 66 -9 83 -32 200 -146 736 -697 1392 -1410 1678 -101 41 -278 97 -349
111 -16 4 -41 9 -55 12 -59 13 -211 34 -285 40 -71 5 -254 11 -258 8z m242
-179 c58 -3 107 -8 110 -10 3 -1 26 -6 51 -9 59 -8 101 -16 122 -22 9 -3 25
-6 35 -8 84 -17 244 -69 358 -117 701 -296 1205 -958 1300 -1709 85 -673 -153
-1345 -644 -1818 -408 -393 -955 -612 -1517 -606 -150 1 -324 18 -392 38 -9 3
-33 7 -52 10 -19 3 -75 17 -124 31 -593 172 -1072 567 -1347 1110 -78 155
-119 265 -164 440 -31 124 -39 161 -50 265 -3 25 -8 61 -10 80 -6 46 -6 280 0
350 10 129 22 199 55 335 117 484 408 923 805 1215 353 260 735 401 1155 426
58 4 106 7 107 8 2 2 92 -2 202 -9z"/>
<path d="M2356 4245 c-9 -21 -16 -41 -16 -45 0 -37 -232 -531 -366 -780 -262
-487 -759 -1305 -1168 -1922 l-18 -28 103 -1 c118 -1 143 0 147 9 1 4 106 189
233 412 127 223 244 430 261 460 17 30 34 60 38 65 4 6 21 35 37 65 16 30 84
150 150 265 66 116 131 230 145 255 55 99 401 707 418 734 18 29 18 27 19
-158 0 -103 2 -210 5 -239 3 -29 8 -83 11 -122 8 -93 24 -197 50 -340 35 -182
135 -455 229 -620 90 -158 238 -332 361 -423 88 -65 105 -71 62 -23 -89 98
-174 258 -243 453 -37 106 -107 366 -95 351 4 -4 34 -48 66 -96 52 -80 149
-210 196 -262 45 -51 248 -254 284 -284 195 -165 434 -311 662 -407 97 -41
272 -98 279 -92 1 2 -33 40 -76 86 -86 90 -213 230 -300 331 -30 36 -60 69
-65 75 -53 56 -357 453 -446 581 -19 28 -36 52 -39 55 -3 3 -53 77 -111 165
-306 464 -556 930 -745 1389 l-53 129 -15 -38z"/>
</g>
</svg>
