<?xml version="1.0" encoding="utf-8"?>
<!-- Generator: Adobe Illustrator 15.0.0, SVG Export Plug-In . SVG Version: 6.00 Build 0)  -->
<!DOCTYPE svg PUBLIC "-//W3C//DTD SVG 1.1//EN" "http://www.w3.org/Graphics/SVG/1.1/DTD/svg11.dtd">
<svg version="1.1" id="Calque_1" xmlns="http://www.w3.org/2000/svg" xmlns:xlink="http://www.w3.org/1999/xlink" x="0px" y="0px"
	 width="60px" height="60px" viewBox="0 0 60 60" enable-background="new 0 0 60 60" xml:space="preserve">
<path fill="#FFFFFF" d="M60,29h-9.065C50.435,18,42,9.394,31,8.888V0h-3v8.97C17,10.006,9.265,19,8.782,29H0v3h8.865
	C9.868,42,18,49.96,28,50.958V60h3v-8.96C41,50.552,49.812,43,50.852,32H60V29z M31,47.92V39h-3v8.819
	C19,46.847,12.981,40,12.004,32H21v-3h-9.099C12.375,20,19,13.125,28,12.109V21h3v-8.992C40,12.508,47.321,20,47.815,29H39v3h8.712
	C46.691,40,40,47.442,31,47.92z"/>
</svg>
